<svg xmlns="http://www.w3.org/2000/svg" viewBox="0 0 64 64"><g fill="none" stroke="#000" stroke-linecap="round" stroke-linejoin="round" stroke-width="2" data-name="Marketing Idea"><path d="M32 14.18a16.1 16.1 0 0 0-14.1 8.64c-1.9 3.42-3.29 12.48 2.3 18.8 2.9 3.28 4.66 4.13 4.43 9M32 14.18a16.1 16.1 0 0 1 14.1 8.64c1.91 3.42 3.29 12.48-2.3 18.8-2.9 3.28-4.66 4.13-4.43 9M40 21.43a11.53 11.53 0 0 0-6-3.08m8.6 6.42c-.09-.18-.21-.37-.34-.58M24.62 54.38h-.33a1 1 0 0 1-1-1v-2.74h17.42v2.74a1 1 0 0 1-1 1H28.52m10.86 0v2.75a1 1 0 0 1-1 1H25.62a1 1 0 0 1-1-1v-2.75m3.21 3.75h8.34v.75a3 3 0 0 1-3 3h-2.34a3 3 0 0 1-3-3v-.75h0z"/><path d="M34.57 38.84a9.22 9.22 0 0 1-2.57.29c-3.89.12-7.95-2.46-7.38-4.81s4.73-3.15 4.75.68.06 15.64.06 15.64m5.14 0s0-11.81.06-15.64 4.19-3 4.75-.68a2.92 2.92 0 0 1-1.29 2.79M32 9.31V2M46.7 14.98l5.17-5.17M52.38 28.68h7.3M47.7 44.38l5.17 5.17M17.3 14.98l-5.17-5.17M11.62 28.68h-7.3M16.3 44.38l-5.17 5.17"/></g></svg>