<svg xmlns="http://www.w3.org/2000/svg" xmlns:svgjs="http://svgjs.com/svgjs" xmlns:xlink="http://www.w3.org/1999/xlink" width="288" height="288"><svg xmlns="http://www.w3.org/2000/svg" width="288" height="288" viewBox="0 0 64 64"><defs><linearGradient id="b" x1="32" x2="32" y1="9" y2="51" gradientUnits="userSpaceOnUse"><stop class="stopColor464646 svgShape" offset="0" stop-color="#464646"/><stop class="stopColor2f2f2f svgShape" offset="1" stop-color="#2f2f2f"/></linearGradient><linearGradient id="c" x1="32" x2="32" y1="21" y2="42" gradientUnits="userSpaceOnUse"><stop class="stopColorf3f3f3 svgShape" offset="0" stop-color="#f3f3f3"/><stop class="stopColorc3c3c3 svgShape" offset="1" stop-color="#c3c3c3"/></linearGradient><linearGradient id="a" x1="28" x2="28" y1="26" y2="32" gradientUnits="userSpaceOnUse"><stop class="stopColor141414 svgShape" offset="0" stop-color="#141414"/><stop class="stopColor000000 svgShape" offset="1"/></linearGradient><linearGradient id="d" x1="36" x2="36" xlink:href="#a"/></defs><g class="color000 svgShape" data-name="Layer 2"><path fill="url(#b)" d="M51.77,20.44A13.85,13.85,0,0,0,37,14.34a14,14,0,0,0-24.74,6.09A12.5,12.5,0,0,0,15.5,45h5a14,14,0,0,0,23,0h5a12.5,12.5,0,0,0,3.27-24.56Z"/><path fill="url(#c)" d="M36,21H28a7,7,0,0,0-7,7v6a3,3,0,0,0,3,3,1,1,0,0,1,1,1v3a1,1,0,0,0,1,1H38a1,1,0,0,0,1-1V38a1,1,0,0,1,1-1,3,3,0,0,0,3-3V28A7,7,0,0,0,36,21Z"/><path fill="url(#a)" d="M28,26a3,3,0,0,0-3,3v2a1,1,0,0,0,1,1h4a1,1,0,0,0,1-1V29A3,3,0,0,0,28,26Z"/><path fill="url(#d)" d="M36,26a3,3,0,0,0-3,3v2a1,1,0,0,0,1,1h4a1,1,0,0,0,1-1V29A3,3,0,0,0,36,26Z"/><path d="M36,21H28a7,7,0,0,0-7,7v6a3,3,0,0,0,3,3,1,1,0,0,1,1,1v3a1,1,0,0,0,1,1H38a1,1,0,0,0,1-1V38a1,1,0,0,1,1-1,3,3,0,0,0,3-3V28A7,7,0,0,0,36,21Zm5,13a1,1,0,0,1-1,1,3,3,0,0,0-3,3v2H35V39a1,1,0,0,0-2,0v1H31V39a1,1,0,0,0-2,0v1H27V38a3,3,0,0,0-3-3,1,1,0,0,1-1-1V28a5,5,0,0,1,5-5h8a5,5,0,0,1,5,5Z" class="color000 svgShape"/><path d="M31 29a3 3 0 0 0-6 0v2a1 1 0 0 0 1 1h4a1 1 0 0 0 1-1zm-2 1H27V29a1 1 0 0 1 2 0zM36 26a3 3 0 0 0-3 3v2a1 1 0 0 0 1 1h4a1 1 0 0 0 1-1V29A3 3 0 0 0 36 26zm1 4H35V29a1 1 0 0 1 2 0zM32.29 33.72a.32.32 0 0 0-.58 0l-.91 1.82a.32.32 0 0 0 .29.46h1.82a.32.32 0 0 0 .29-.46z" class="color000 svgShape"/><path d="M51.77,20.44A13.85,13.85,0,0,0,37,14.34a14,14,0,0,0-24.74,6.09A12.5,12.5,0,0,0,15.5,45h5a14,14,0,0,0,23,0h5a12.5,12.5,0,0,0,3.27-24.56ZM48.5,43H42.94a1,1,0,0,0-.84.46,12,12,0,0,1-20.2,0,1,1,0,0,0-.84-.46H15.5a10.5,10.5,0,0,1-2.16-20.77,1,1,0,0,0,.78-.85,12,12,0,0,1,21.65-5.33,1,1,0,0,0,1.07.38,11.88,11.88,0,0,1,13.44,5.4,1,1,0,0,0,.63.46A10.49,10.49,0,0,1,48.5,43Z" class="color000 svgShape"/></g></svg></svg>