<svg xmlns="http://www.w3.org/2000/svg" xmlns:svgjs="http://svgjs.com/svgjs" xmlns:xlink="http://www.w3.org/1999/xlink" width="288" height="288"><svg xmlns="http://www.w3.org/2000/svg" width="288" height="288" data-name="Layer 1" viewBox="0 0 128 128"><path d="M42,109.18a6.72,6.72,0,0,0,3.15,5.63A7.45,7.45,0,0,0,49.2,116H78.8a7.45,7.45,0,0,0,4.05-1.18A6.72,6.72,0,0,0,86,109.18v-.68H42Z" class="color000 svgShape"/><path d="M83.88,28H82.45V12h8.17a4,4,0,0,0,3.9-4V4a4,4,0,0,0-3.9-4H37.38a4,4,0,0,0-3.9,4V8a4,4,0,0,0,3.9,4h8.17V28H44.12A16.14,16.14,0,0,0,28,44.12v67.76A16.14,16.14,0,0,0,44.12,128H83.88A16.14,16.14,0,0,0,100,111.88V44.12A16.14,16.14,0,0,0,83.88,28ZM49.55,12h28.9V28H66V25h1.29a2,2,0,0,0,0-4H60.71a2,2,0,0,0,0,4H62v3H49.55ZM62,46.56a2,2,0,0,1,2.51-.21,2,2,0,0,1,.72,2.42c-1.81,4.35-4.1,12.38-2.55,15.37a1.58,1.58,0,0,0,1.15.91c1.75.4,2.46-.17,2.69-.36,1.44-1.17,1.68-4.24,1.66-5a2,2,0,0,1,3.27-1.59c.4.33,9.71,8.07,8.45,16.9-.74,5.26-5,9.58-12.59,12.84a2,2,0,0,1-.79.16H61a2.07,2.07,0,0,1-.74-.14c-.41-.17-10.11-4.14-12-13.67C46.72,66.09,51.32,56.8,62,46.56ZM77,97a2,2,0,0,1,0,4H51a2,2,0,0,1,0-4ZM56,92a2,2,0,0,1,2-2H70a2,2,0,0,1,0,4H58A2,2,0,0,1,56,92Zm34,17.18a10.71,10.71,0,0,1-5,9A11.44,11.44,0,0,1,78.8,120H49.2A11.44,11.44,0,0,1,43,118.18a10.71,10.71,0,0,1-5-9V47.12a2,2,0,0,1,4,0V104.5H86V47.12a2,2,0,0,1,4,0Z" class="color000 svgShape"/></svg></svg>