<svg xmlns="http://www.w3.org/2000/svg" xmlns:svgjs="http://svgjs.com/svgjs" xmlns:xlink="http://www.w3.org/1999/xlink" width="288" height="288"><svg xmlns="http://www.w3.org/2000/svg" width="288" height="288" viewBox="0 0 100 100"><path d="M49.524 15a1.5 1.5 0 0 0 1.5-1.5v-7a1.5 1.5 0 1 0-3 0v7a1.5 1.5 0 0 0 1.5 1.5zm-19.248 4.168a1.498 1.498 0 0 0 2.049.548 1.5 1.5 0 0 0 .549-2.049l-3.5-6.063a1.5 1.5 0 1 0-2.598 1.5l3.5 6.064zM11.585 29.395l6.063 3.499a1.496 1.496 0 0 0 2.049-.55 1.5 1.5 0 0 0-.549-2.049l-6.063-3.499a1.5 1.5 0 1 0-1.5 2.599zm69.169 3.701c.255 0 .513-.065.749-.202l6.062-3.501a1.5 1.5 0 1 0-1.5-2.597l-6.062 3.501a1.5 1.5 0 0 0 .751 2.799zM66.825 19.717a1.502 1.502 0 0 0 2.049-.549l3.5-6.063a1.5 1.5 0 1 0-2.598-1.5l-3.5 6.063a1.5 1.5 0 0 0 .549 2.049zm-17.337.195L10.503 47.733V95h78.994V47.733L49.488 19.912zM82.497 88H17.503V51.337L49.54 28.475l32.957 22.917V88z" class="color1E4153 svgShape"/><path d="M37.983 52.905c0 .05.01.098.012.148-5.217.693-9.147 3.752-9.147 7.421 0 2.839 2.356 5.31 5.837 6.605-1.273 1.073-2.039 2.425-2.039 3.898 0 3.483 4.25 6.308 9.494 6.308h.003a3.592 3.592 0 0 0-.037.487c0 1.892 1.51 3.546 3.769 4.472.373-1.376 1.419-2.222 2.237-2.871.988-.784 1.272-1.096 1.248-1.65-.023-.555-.332-.841-1.385-1.536-1.113-.735-2.638-1.743-2.728-3.912-.094-2.164 1.337-3.297 2.381-4.125.988-.783 1.272-1.095 1.248-1.65a1.5 1.5 0 0 1 1.435-1.563c.809-.049 1.527.606 1.563 1.434.093 2.168-1.338 3.303-2.383 4.131-.987.782-1.271 1.093-1.246 1.646.022.556.332.842 1.383 1.536 1.113.735 2.638 1.742 2.729 3.912.093 2.166-1.337 3.3-2.382 4.128-.718.569-1.062.89-1.188 1.235.402.042.812.07 1.231.07 4.369 0 7.912-2.354 7.912-5.257 0-.579-.146-1.134-.406-1.654 4.571-.456 8.079-3.067 8.079-6.231a4.33 4.33 0 0 0-.289-1.519c2.348-1.386 3.835-3.401 3.835-5.652 0-2.585-1.953-4.865-4.929-6.231.711-1.099 1.107-2.309 1.107-3.581 0-5.017-6.121-9.084-13.672-9.084-7.55 0-13.672 4.068-13.672 9.085z" class="color1E4153 svgShape"/></svg></svg>